<?xml version="1.0" encoding="UTF-8"?>
<svg width="1300px" height="200px" viewBox="0 0 1300 200" version="1.1" 
    xmlns="http://www.w3.org/2000/svg" 
    xmlns:xlink="http://www.w3.org/1999/xlink">
    <g>
        <rect id="Outline" fill="transparent" stroke="#8896b0" stroke-width="10" x="5" y="5" width="1290" height="190" rx="30"></rect>
        <path id="Manufacturist" fill="#8896b0" d="M148.824,136.951689 L148.824,87.0130485 L148.104,87.0130485 L122.472,136.951689 L108.36,136.951689 L82.872,87.0130485 L82.152,87.0130485 L82.152,136.951689 L63,136.951689 L63,63.8500194 L91.224,63.8500194 L115.416,110.70734 L116.28,110.70734 L140.472,63.8500194 L168.552,63.8500194 L168.552,136.951689 L148.824,136.951689 Z M255.96,136.951689 L248.76,121.22633 L210.168,121.22633 L203.112,136.951689 L182.52,136.951689 L216.072,63.8500194 L243.576,63.8500194 L277.128,136.951689 L255.96,136.951689 Z M229.752,78.0878447 L229.032,78.0878447 L215.64,108.051029 L243.288,108.051029 L229.752,78.0878447 Z M351.864,136.951689 L311.4,90.5193786 L310.824,90.5193786 L310.824,136.951689 L291.096,136.951689 L291.096,63.8500194 L312.264,63.8500194 L351,107.626019 L351.72,107.626019 L351.72,63.8500194 L371.448,63.8500194 L371.448,136.951689 L351.864,136.951689 Z M472.248,63.8500194 L472.248,104.225942 C472.248,113.930379 471.408008,121.031511 469.728,125.529553 C468.047992,130.027595 464.520027,133.197428 459.144,135.039146 C453.767973,136.880864 445.12806,137.801709 433.224,137.801709 C421.31994,137.801709 412.680027,136.880864 407.304,135.039146 C401.927973,133.197428 398.376009,130.027595 396.648,125.529553 C394.919991,121.031511 394.056,113.930379 394.056,104.225942 L394.056,63.8500194 L414.504,63.8500194 L414.504,108.051029 C414.504,113.505348 414.839997,117.29498 415.512,119.420039 C416.184003,121.545098 417.767988,122.9972 420.264,123.776388 C422.760012,124.555577 427.079969,124.945165 433.224,124.945165 C439.464031,124.945165 443.807988,124.555577 446.256,123.776388 C448.704012,122.9972 450.239997,121.545098 450.864,119.420039 C451.488003,117.29498 451.8,113.505348 451.8,108.051029 L451.8,63.8500194 L472.248,63.8500194 Z M495.288,136.951689 L495.288,63.8500194 L560.52,63.8500194 L560.52,76.919068 L515.736,76.919068 L515.736,95.5132427 L555.192,95.5132427 L555.192,108.582291 L515.736,108.582291 L515.736,136.951689 L495.288,136.951689 Z M634.968,136.951689 L627.768,121.22633 L589.176,121.22633 L582.12,136.951689 L561.528,136.951689 L595.08,63.8500194 L622.584,63.8500194 L656.136,136.951689 L634.968,136.951689 Z M608.76,78.0878447 L608.04,78.0878447 L594.648,108.051029 L622.296,108.051029 L608.76,78.0878447 Z M733.896,136.10167 C730.631984,136.597517 726.624024,137.004814 721.872,137.323573 C717.119976,137.642332 712.72802,137.801709 708.696,137.801709 C696.503939,137.801709 687.504029,136.703778 681.696,134.507883 C675.887971,132.311989 672.02401,128.664026 670.104,123.563883 C668.18399,118.463741 667.224,110.742809 667.224,100.400854 C667.224,90.2005704 668.18399,82.5327635 670.104,77.3972039 C672.02401,72.2616442 675.887971,68.5782636 681.696,66.3469515 C687.504029,64.1156393 696.503939,63 708.696,63 C712.824021,63 717.191977,63.1770856 721.8,63.5312621 C726.408023,63.8854387 730.247985,64.3458612 733.32,64.9125437 L733.32,77.1315728 C724.967958,76.4232198 718.488023,76.0690485 713.88,76.0690485 C705.143956,76.0690485 699.096017,76.5471797 695.736,77.5034563 C692.375983,78.4597329 690.216005,80.4962174 689.256,83.6129709 C688.295995,86.7297243 687.816,92.3256295 687.816,100.400854 C687.816,108.476079 688.295995,114.071984 689.256,117.188738 C690.216005,120.305491 692.375983,122.341976 695.736,123.298252 C699.096017,124.254529 705.143956,124.73266 713.88,124.73266 C721.176036,124.73266 727.84797,124.378489 733.896,123.670136 L733.896,136.10167 Z M772.488,136.951689 L772.488,77.5565825 L743.688,77.5565825 L743.688,63.8500194 L821.736,63.8500194 L821.736,77.5565825 L792.936,77.5565825 L792.936,136.951689 L772.488,136.951689 Z M913.752,63.8500194 L913.752,104.225942 C913.752,113.930379 912.912008,121.031511 911.232,125.529553 C909.551992,130.027595 906.024027,133.197428 900.648,135.039146 C895.271973,136.880864 886.63206,137.801709 874.728,137.801709 C862.82394,137.801709 854.184027,136.880864 848.808,135.039146 C843.431973,133.197428 839.880009,130.027595 838.152,125.529553 C836.423991,121.031511 835.56,113.930379 835.56,104.225942 L835.56,63.8500194 L856.008,63.8500194 L856.008,108.051029 C856.008,113.505348 856.343997,117.29498 857.016,119.420039 C857.688003,121.545098 859.271988,122.9972 861.768,123.776388 C864.264012,124.555577 868.583969,124.945165 874.728,124.945165 C880.968031,124.945165 885.311988,124.555577 887.76,123.776388 C890.208012,122.9972 891.743997,121.545098 892.368,119.420039 C892.992003,117.29498 893.304,113.505348 893.304,108.051029 L893.304,63.8500194 L913.752,63.8500194 Z M994.104,136.951689 L979.56,110.494835 L957.24,110.494835 L957.24,136.951689 L936.792,136.951689 L936.792,63.8500194 L983.448,63.8500194 C991.992043,63.8500194 998.495978,64.7885731 1002.96,66.6657087 C1007.42402,68.5428443 1010.39999,71.1282942 1011.888,74.4221359 C1013.37601,77.7159776 1014.12,81.9483237 1014.12,87.119301 C1014.12,98.6654558 1009.41605,105.784297 1000.008,108.476039 L1015.848,136.951689 L994.104,136.951689 Z M975.24,97.4257864 C980.808028,97.4257864 984.863987,97.1424494 987.408,96.575767 C989.952013,96.0090845 991.583996,95.0351137 992.304,93.6538252 C993.024004,92.2725368 993.384,90.0943838 993.384,87.119301 C993.384,84.0733828 993.024004,81.8775213 992.304,80.5316505 C991.583996,79.1857797 990.000012,78.247226 987.552,77.7159612 C985.103988,77.1846964 981.048028,76.919068 975.384,76.919068 L957.24,76.919068 L957.24,97.4257864 L975.24,97.4257864 Z M1034.424,136.951689 L1034.424,63.8500194 L1054.872,63.8500194 L1054.872,136.951689 L1034.424,136.951689 Z M1113.48,137.801709 C1099.36793,137.801709 1087.27205,137.235035 1077.192,136.10167 L1077.192,123.457631 C1089.00006,124.307655 1099.07996,124.73266 1107.432,124.73266 C1112.32802,124.73266 1116.14399,124.573283 1118.88,124.254524 C1121.61601,123.935765 1123.65599,123.3868 1125,122.607612 C1126.24801,121.899259 1127.04,121.049248 1127.376,120.057553 C1127.712,119.065859 1127.88,117.649174 1127.88,115.807456 C1127.88,113.753232 1127.688,112.248005 1127.304,111.291728 C1126.92,110.335452 1126.15201,109.627109 1125,109.16668 C1123.84799,108.70625 1121.92801,108.369787 1119.24,108.157282 L1098.072,106.35099 C1091.73597,105.713473 1086.84002,104.491582 1083.384,102.685282 C1079.92798,100.878981 1077.55201,98.5414512 1076.256,95.6726214 C1074.95999,92.8037915 1074.312,89.2443708 1074.312,84.9942524 C1074.312,78.7607455 1075.84798,74.0325598 1078.92,70.8095534 C1081.99202,67.586547 1086.11997,65.4792283 1091.304,64.487534 C1096.48803,63.4958397 1103.15996,63 1111.32,63 C1123.89606,63 1134.64796,63.7083424 1143.576,65.1250485 L1143.576,77.4503301 C1134.26395,76.5294711 1124.90405,76.0690485 1115.496,76.0690485 C1106.85596,76.0690485 1101.14401,76.6003054 1098.36,77.662835 C1096.82399,78.2295174 1095.864,78.9732769 1095.48,79.8941359 C1095.096,80.8149949 1094.904,82.1962626 1094.904,84.0379806 C1094.904,86.1630398 1095.096,87.685976 1095.48,88.606835 C1095.864,89.5276939 1096.70399,90.1829107 1098,90.5725049 C1099.29601,90.962099 1101.47998,91.2985617 1104.552,91.5819029 L1127.304,93.600699 C1131.72002,93.9548756 1135.36799,94.6100923 1138.248,95.5663689 C1141.12801,96.5226456 1143.38399,98.0987075 1145.016,100.294602 C1147.32001,103.34052 1148.472,108.050997 1148.472,114.426175 C1148.472,121.155529 1147.03201,126.220177 1144.152,129.620272 C1141.27199,133.020367 1137.40802,135.233937 1132.56,136.261049 C1127.71198,137.28816 1121.35204,137.801709 1113.48,137.801709 Z M1187.928,136.951689 L1187.928,77.5565825 L1159.128,77.5565825 L1159.128,63.8500194 L1237.176,63.8500194 L1237.176,77.5565825 L1208.376,77.5565825 L1208.376,136.951689 L1187.928,136.951689 Z"></path>
    </g>
</svg>