<?xml version="1.0" encoding="UTF-8"?>
<svg width="1100px" height="240px" viewBox="0 0 1100 240" version="1.1" 
    xmlns="http://www.w3.org/2000/svg" 
    xmlns:xlink="http://www.w3.org/1999/xlink">

    <g fill="#eee">
        <path d="M235.105902,160.825035 L235.105902,127.142462 L179.753832,127.142462 L179.753832,160.825035 L158,160.825035 L158,80.0573997 L179.753832,80.0573997 L179.753832,109.448824 L235.105902,109.448824 L235.105902,80.0573997 L256.859734,80.0573997 L256.859734,160.825035 L235.105902,160.825035 Z M350.383623,160.825035 L350.383623,152.88935 C347.608187,154.417712 344.627571,155.769704 341.441684,156.945367 C338.255797,158.121029 334.942914,159.120328 331.502938,159.943292 C328.062962,160.766256 324.515539,161.38347 320.860565,161.794952 C317.20559,162.206434 313.521352,162.412172 309.807741,162.412172 C305.46868,162.412172 301.276272,162.000696 297.230391,161.177732 C293.18451,160.354768 289.597997,159.02237 286.470746,157.180498 C283.343495,155.338626 280.831959,152.928553 278.936063,149.950207 C277.040167,146.971862 276.092233,143.327361 276.092233,139.016598 C276.092233,133.56936 277.577655,129.033328 280.548544,125.408368 C283.519432,121.783407 288.053879,118.814903 294.152018,116.502766 C300.250158,114.190629 307.960671,112.407567 317.283789,111.153527 C326.606907,109.899487 337.640074,108.919782 350.383623,108.214385 L350.383623,106.509682 C350.383623,105.177264 350.031812,103.854663 349.328181,102.54184 C348.624549,101.229016 347.34435,100.072965 345.487545,99.0736515 C343.630739,98.074338 341.089886,97.2611834 337.864908,96.6341632 C334.63993,96.007143 330.525702,95.6936376 325.5221,95.6936376 C321.573946,95.6936376 317.674713,95.8993755 313.824285,96.3108575 C309.973857,96.7223395 306.260301,97.280771 302.683508,97.9861687 C299.106714,98.6915665 295.715652,99.5145181 292.51022,100.455048 C289.304787,101.395579 286.392578,102.375283 283.773505,103.394191 L283.773505,83.9958506 C286.50985,83.2904529 289.578419,82.6046599 292.979305,81.9384509 C296.380191,81.2722419 299.917841,80.6942164 303.592361,80.2043568 C307.266881,79.7144973 310.980436,79.3226156 314.733137,79.0286999 C318.485839,78.7347841 322.082124,78.5878285 325.5221,78.5878285 C332.284781,78.5878285 338.519644,79.14626 344.226878,80.2631397 C349.934111,81.3800194 354.849686,83.1140961 358.973748,85.4654219 C363.097811,87.8167476 366.32274,90.7950488 368.648633,94.4004149 C370.974526,98.0057811 372.137455,102.296886 372.137455,107.273859 L372.137455,160.825035 L350.383623,160.825035 Z M350.383623,123.968188 C342.018226,124.281698 334.913609,124.732362 329.069558,125.320194 C323.225507,125.908025 318.368568,126.593818 314.498595,127.377593 C310.628621,128.161369 307.58937,129.003914 305.380749,129.905256 C303.172127,130.806597 301.520573,131.72752 300.426035,132.66805 C299.331497,133.60858 298.657193,134.549096 298.403104,135.489627 C298.149015,136.430157 298.021972,137.292297 298.021972,138.076072 C298.021972,139.016602 298.276058,139.927727 298.784236,140.809474 C299.292414,141.691222 300.181713,142.465188 301.452159,143.131397 C302.722605,143.797606 304.41325,144.326646 306.524144,144.718534 C308.635039,145.110422 311.293162,145.306362 314.498595,145.306362 C318.055843,145.306362 321.534858,145.032045 324.935743,144.483402 C328.336629,143.93476 331.561559,143.180387 334.610629,142.220263 C337.659698,141.260138 340.523045,140.123681 343.200754,138.810858 C345.878463,137.498034 348.272728,136.097057 350.383623,134.607884 L350.383623,123.968188 Z M396.998978,160.825035 L396.998978,80.0573997 L418.75281,80.0573997 L418.75281,160.825035 L396.998978,160.825035 Z M520.720235,160.825035 L520.720235,115.562241 C520.720235,112.544706 520.46615,109.811331 519.957971,107.362033 C519.449793,104.912736 518.501859,102.816168 517.114142,101.072268 C515.726424,99.3283684 513.791466,97.9763764 511.309211,97.0162517 C508.826955,96.0561271 505.631343,95.5760719 501.722279,95.5760719 C498.75139,95.5760719 495.633959,95.9777507 492.36989,96.7811203 C489.105822,97.58449 485.87112,98.6523677 482.665687,99.9847856 C479.460255,101.317204 476.401458,102.865136 473.489205,104.628631 C470.576953,106.392125 467.987237,108.233969 465.71998,110.154219 L465.71998,160.825035 L443.966147,160.825035 L443.966147,80.0573997 L465.71998,80.0573997 L465.71998,91.1085754 C468.456324,89.5410249 471.368533,87.983295 474.456694,86.4353389 C477.544854,84.8873828 480.828419,83.4864055 484.307486,82.2323651 C487.786553,80.9783248 491.480563,79.9594322 495.389627,79.175657 C499.298691,78.3918817 503.422692,78 507.761753,78 C513.195352,78 518.052291,78.6564019 522.332716,79.9692254 C526.613141,81.282049 530.238743,83.1434873 533.209632,85.5535961 C536.180521,87.963705 538.457516,90.883224 540.040687,94.3122407 C541.623858,97.7412573 542.415432,101.571901 542.415432,105.804288 L542.415432,160.825035 L520.720235,160.825035 Z M641.509709,102.806362 C639.985174,102.061776 637.972036,101.21923 635.470235,100.2787 C632.968434,99.3381696 630.134405,98.4466386 626.968063,97.6040802 C623.801722,96.7615218 620.361797,96.0561347 616.648186,95.4878976 C612.934575,94.9196606 609.123295,94.6355463 605.214231,94.6355463 C602.08698,94.6355463 599.419084,94.7335168 597.210462,94.9294606 C595.001841,95.1254044 593.145064,95.3801275 591.640074,95.6936376 C590.135084,96.0071477 588.942838,96.3696383 588.063298,96.7811203 C587.183759,97.1926023 586.509456,97.6138752 586.040368,98.0449516 C585.57128,98.476028 585.268332,98.9070979 585.131515,99.3381743 C584.994698,99.7692507 584.92629,100.161132 584.92629,100.513831 C584.92629,101.689494 585.512641,102.718184 586.68536,103.599931 C587.858079,104.481678 589.460772,105.265441 591.493485,105.951245 C593.526198,106.637048 595.891146,107.283653 598.588401,107.891079 C601.285655,108.498505 604.149001,109.125515 607.178526,109.77213 C610.20805,110.418745 613.335255,111.124132 616.560232,111.888313 C619.78521,112.652493 622.912415,113.544024 625.941939,114.562932 C628.971464,115.58184 631.83481,116.767282 634.532064,118.119295 C637.229319,119.471307 639.594267,121.048631 641.62698,122.851314 C643.659693,124.653997 645.262386,126.73097 646.435105,129.082296 C647.607824,131.433622 648.194175,134.118012 648.194175,137.135546 C648.194175,141.015234 647.510099,144.346229 646.141926,147.128631 C644.773754,149.911033 642.946294,152.262323 640.659492,154.182573 C638.372689,156.102822 635.724338,157.640958 632.714359,158.797026 C629.704379,159.953095 626.547858,160.844626 623.244699,161.471646 C619.941539,162.098666 616.59934,162.510142 613.217999,162.706086 C609.836659,162.90203 606.621502,163 603.572432,163 C595.597942,163 588.219694,162.343598 581.437468,161.030775 C574.655242,159.717951 568.664691,158.081845 563.465636,156.122407 L563.465636,136.841632 C568.821054,139.819978 574.928875,142.151674 581.789282,143.836791 C588.649689,145.521908 595.988847,146.364454 603.806975,146.364454 C608.41967,146.364454 612.182088,146.119528 615.094341,145.629668 C618.006594,145.139809 620.283589,144.512798 621.925396,143.748617 C623.567203,142.984436 624.681269,142.151687 625.267629,141.250346 C625.853989,140.349004 626.147164,139.486864 626.147164,138.6639 C626.147164,137.370671 625.560813,136.244011 624.388094,135.283887 C623.215375,134.323762 621.612683,133.481216 619.579969,132.756224 C617.547256,132.031232 615.182308,131.365033 612.485054,130.757607 C609.787799,130.150181 606.924453,129.542765 603.894928,128.935339 C600.865404,128.327913 597.747972,127.671511 594.54254,126.966113 C591.337107,126.260716 588.219675,125.427967 585.190151,124.467842 C582.160626,123.507718 579.29728,122.390855 576.600026,121.11722 C573.902771,119.843585 571.537823,118.33484 569.50511,116.590941 C567.472397,114.847041 565.869704,112.82885 564.696985,110.536307 C563.524266,108.243764 562.937915,105.588766 562.937915,102.571231 C562.937915,99.0050536 563.563356,95.928782 564.814257,93.3423237 C566.065157,90.7558654 567.755802,88.5515305 569.886242,86.7292531 C572.016682,84.9069757 574.479355,83.4276221 577.274336,82.291148 C580.069316,81.1546739 583.010843,80.27294 586.099004,79.6459198 C589.187164,79.0188996 592.314368,78.5878297 595.48071,78.3526971 C598.647052,78.1175645 601.656986,78 604.510603,78 C607.637854,78 610.853011,78.1567527 614.15617,78.4702628 C617.459329,78.7837729 620.713576,79.2246399 623.919009,79.7928769 C627.124441,80.361114 630.222328,81.0175159 633.212762,81.7621024 C636.203196,82.5066888 638.968817,83.2904523 641.509709,84.1134163 L641.509709,102.806362 Z M690.529126,80.0573997 L690.529126,88.93361 C692.444568,87.7187583 694.526113,86.4647368 696.773825,85.1715076 C699.021537,83.8782785 701.464665,82.7026332 704.103283,81.6445367 C706.741901,80.5864401 709.57593,79.7145032 712.605455,79.0286999 C715.634979,78.3428965 718.908771,78 722.426929,78 C725.866905,78 728.876839,78.3624906 731.456822,79.0874827 C734.036804,79.8124748 736.274709,80.752991 738.170606,81.9090595 C740.066502,83.065128 741.678966,84.3583377 743.008048,85.7887275 C744.33713,87.2191173 745.490286,88.6396887 746.467552,90.0504841 C749.242988,88.247801 751.979292,86.6018977 754.676546,85.1127248 C757.3738,83.6235518 760.090559,82.3499361 762.826903,81.2918396 C765.563248,80.233743 768.358187,79.4205884 771.211804,78.8523513 C774.065421,78.2841143 777.036265,78 780.124425,78 C785.049846,78 789.457249,78.685793 793.346768,80.0573997 C797.236287,81.4290064 800.529624,83.3100388 803.226878,85.7005533 C805.924132,88.0910677 807.986132,90.9028192 809.412941,94.1358921 C810.839749,97.368965 811.553143,100.827321 811.553143,104.511065 L811.553143,160.825035 L789.79931,160.825035 L789.79931,107.626556 C789.79931,105.471174 789.467045,103.609736 788.802504,102.042185 C788.137963,100.474635 787.248664,99.2010192 786.134581,98.2213001 C785.020498,97.2415811 783.710981,96.5165999 782.205991,96.0463347 C780.701002,95.5760696 779.108082,95.3409405 777.427184,95.3409405 C769.609056,95.3409405 760.696524,98.8678762 750.68932,105.921853 C750.806592,106.588062 750.894545,107.371826 750.953181,108.273167 C751.011817,109.174509 751.041134,110.075837 751.041134,110.977178 L751.041134,160.825035 L729.287302,160.825035 L729.287302,107.156293 C729.287302,105.000911 728.955037,103.168864 728.290496,101.660097 C727.625955,100.151329 726.717111,98.926699 725.563937,97.9861687 C724.410763,97.0456385 723.081701,96.3696424 721.576712,95.9581604 C720.071722,95.5466784 718.478802,95.3409405 716.797905,95.3409405 C714.765192,95.3409405 712.625011,95.6348518 710.377299,96.2226833 C708.129588,96.8105147 705.862365,97.6334664 703.575562,98.6915629 C701.28876,99.7496595 699.041082,101.003681 696.83246,102.453665 C694.623839,103.903649 692.522749,105.471176 690.529126,107.156293 L690.529126,160.825035 L668.775294,160.825035 L668.775294,80.0573997 L690.529126,80.0573997 Z M836.414665,160.825035 L836.414665,80.0573997 L858.168498,80.0573997 L858.168498,160.825035 L836.414665,160.825035 Z M928.531298,97.6334716 L928.531298,160.825035 L906.777466,160.825035 L906.777466,97.6334716 L872.592872,97.6334716 L872.592872,80.0573997 L962.774527,80.0573997 L962.774527,97.6334716 L928.531298,97.6334716 Z M1054.24617,160.825035 L1054.24617,127.142462 L998.894098,127.142462 L998.894098,160.825035 L977.140266,160.825035 L977.140266,80.0573997 L998.894098,80.0573997 L998.894098,109.448824 L1054.24617,109.448824 L1054.24617,80.0573997 L1076,80.0573997 L1076,160.825035 L1054.24617,160.825035 Z" id="Text"></path>
        <path d="M45.5213146,133.213675 L69.0554568,133.213675 C70.1165301,134.921904 71.464078,136.503501 73.0981399,137.958506 C74.858597,139.526057 77.0493552,140.878049 79.6704802,142.014523 C82.2916052,143.150997 85.3527985,144.042528 88.8541521,144.689142 C92.3555056,145.335757 96.394716,145.659059 100.971904,145.659059 C105.431729,145.659059 109.441599,145.374945 113.001634,144.806708 C116.56167,144.238471 119.828247,143.484099 122.801463,142.543568 C125.77468,141.603038 128.493567,140.53516 130.958207,139.339903 C133.422847,138.144646 135.770088,136.920015 138,135.665975 L138,155.299447 C135.183269,156.47511 132.347019,157.53319 129.491167,158.473721 C126.635314,159.414251 123.681703,160.227406 120.630244,160.913209 C117.578785,161.599012 114.361109,162.118255 110.977119,162.470954 C107.593129,162.823653 103.964686,163 100.09168,163 C91.8762139,163 84.3161421,162.118266 77.4112382,160.354772 C70.5063343,158.591277 64.5599907,155.936279 59.572029,152.389696 C54.5840672,148.843113 50.7013395,144.414849 47.9237295,139.104772 C46.9534542,137.249855 46.1526498,135.286158 45.5213146,133.213675 Z M45.3082027,108.512821 C45.9689251,106.171436 46.8407666,103.965575 47.9237295,101.895228 C50.7013395,96.585151 54.5840672,92.1568873 59.572029,88.6103043 C64.5599907,85.0637213 70.5063343,82.4087225 77.4112382,80.6452282 C84.3161421,78.8817339 91.8762139,78 100.09168,78 C103.964686,78 107.593129,78.1763468 110.977119,78.5290456 C114.361109,78.8817445 117.578785,79.4009878 120.630244,80.0867911 C123.681703,80.7725945 126.635314,81.5857491 129.491167,82.5262794 C132.347019,83.4668097 135.183269,84.5248904 138,85.7005533 L138,105.334025 C135.770088,104.119173 133.422847,102.914137 130.958207,101.71888 C128.493567,100.523622 125.77468,99.4459476 122.801463,98.485823 C119.828247,97.5256983 116.56167,96.7419348 113.001634,96.134509 C109.441599,95.5270832 105.431729,95.2233748 100.971904,95.2233748 C94.1256824,95.2233748 88.4434034,95.928762 83.9248969,97.3395574 C79.4063904,98.7503528 75.7975075,100.631385 73.0981399,102.982711 C71.1805594,104.653049 69.6677089,106.496409 68.5595679,108.512821 L45.3082027,108.512821 Z M29.2524451,112.145299 L84.3710276,112.145299 C88.3764424,112.145299 91.6234726,115.397931 91.6234726,119.410256 L91.6234726,122.316239 C91.6234726,126.328564 88.3764424,129.581197 84.3710276,129.581197 L29.2524451,129.581197 C25.2470303,129.581197 22,126.328564 22,122.316239 L22,119.410256 C22,115.397931 25.2470303,112.145299 29.2524451,112.145299 Z"></path>
    </g>
</svg>