<svg xmlns="http://www.w3.org/2000/svg" width="400" height="50" viewBox="0 0 400 50"><path d="M21.683 38.56v5.527H4.908v4.29H0V34.27h4.908v4.29h16.775zm0-11.214v5.526H0v-5.526h8.127V20.26H0v-5.526h21.683v5.526h-8.646v7.086h8.646zm0-26.005v12.03H0V1.34h4.908v6.73h3.316V1.536h4.91V8.07h3.64V1.34h4.91z"/><path d="M34.287 48.377h-11V1.34H38.73l9.31 30.96 9.307-30.96h15.515v47.04H61.79l.424-35.33-10.156 35.33H44.09L33.935 13.05l.352 35.33zm66.36-35.26h9.942v35.26h-9.947V44.57c-1.646 3.34-5.29 5.006-10.93 5.006-5.314 0-9.627-1.738-12.94-5.218-3.315-3.48-4.973-8.015-4.973-13.61 0-5.547 1.693-10.084 5.078-13.61s7.732-5.29 13.046-5.29c5.218 0 8.79 1.67 10.72 5.007v-3.737zm-9.522 8.675c-2.492 0-4.572.862-6.24 2.584s-2.504 3.858-2.504 6.407c0 2.55.85 4.686 2.54 6.407 1.695 1.724 3.787 2.584 6.278 2.584 2.585 0 4.7-.85 6.348-2.548 1.646-1.7 2.468-3.87 2.468-6.514 0-2.55-.835-4.673-2.503-6.372-1.67-1.7-3.797-2.548-6.382-2.548zm31.734 26.585h-10.58v-35.26h10.012v3.738c2.303-3.29 5.524-4.937 9.66-4.937 3.855 0 7.006 1.2 9.45 3.597 1.364 1.364 2.293 2.785 2.786 4.267.493 1.48.74 3.656.74 6.523v22.072H134.35V29.075c0-4.902-1.833-7.354-5.5-7.354-3.997 0-5.994 2.31-5.994 6.93v19.73zm46.05-35.26h10.574v35.26H169.47V44.64c-1.645 3.29-4.75 4.936-9.31 4.936-4.276 0-7.71-1.48-10.294-4.442-1.364-1.552-2.257-3.243-2.68-5.077-.33-1.315-.494-3.268-.494-5.854V13.118h10.58v19.727c0 4.62 1.878 6.93 5.64 6.93 3.996 0 5.994-2.31 5.994-6.93V13.118zm26.3 35.26H184.63v-27.29h-5.974v-7.97h5.974v-1.832c0-3.714 1.115-6.453 3.35-8.215 2.23-1.764 5.605-2.645 10.12-2.645h1.62v7.968h-1.27c-2.162 0-3.243 1.105-3.243 3.314v1.41h4.514v7.97h-4.514v27.29zm30.816-35.26h9.943v35.26h-9.944V44.57c-1.647 3.34-5.29 5.006-10.93 5.006-5.315 0-9.627-1.738-12.942-5.218-3.314-3.48-4.972-8.015-4.972-13.61 0-5.547 1.692-10.084 5.078-13.61s7.734-5.29 13.048-5.29c5.22 0 8.79 1.67 10.72 5.007v-3.737zm-9.52 8.675c-2.492 0-4.573.862-6.242 2.584-1.668 1.723-2.503 3.858-2.503 6.407 0 2.55.848 4.686 2.54 6.407 1.69 1.724 3.784 2.584 6.276 2.584 2.585 0 4.7-.85 6.347-2.548 1.646-1.7 2.468-3.87 2.468-6.514 0-2.55-.834-4.673-2.502-6.372-1.67-1.7-3.8-2.548-6.384-2.548zm38.15 17.982c3.15 0 5.736-1.598 7.758-4.795h10.648c-1.035 4.322-3.268 7.84-6.7 10.54-3.432 2.703-7.357 4.053-11.776 4.053-5.266 0-9.73-1.833-13.398-5.5-3.668-3.666-5.5-8.133-5.5-13.398 0-5.265 1.797-9.708 5.394-13.328 3.596-3.62 8.003-5.43 13.222-5.43 4.606 0 8.65 1.363 12.13 4.09 3.478 2.727 5.664 6.3 6.558 10.72H262.35c-1.41-3.34-3.974-5.01-7.688-5.01-2.445 0-4.454.866-6.03 2.596-1.574 1.73-2.36 3.92-2.36 6.574 0 2.607.786 4.74 2.36 6.397 1.574 1.66 3.583 2.487 6.028 2.487zm21.3-38.434h10.577v11.78h6.79v7.97h-6.79v27.29h-10.578V21.09h-5.148v-7.97h5.146V1.34zm38.927 11.778h10.577v35.26h-10.01V44.64c-1.647 3.29-4.75 4.936-9.31 4.936-4.28 0-7.71-1.48-10.297-4.442-1.363-1.552-2.256-3.243-2.68-5.077-.33-1.315-.493-3.268-.493-5.854V13.118h10.578v19.727c0 4.62 1.88 6.93 5.642 6.93 3.995 0 5.994-2.31 5.994-6.93V13.118zm23.2 35.26h-10.578v-35.26h10.015v3.737c1.88-3.29 4.726-4.937 8.533-4.937h.282v10.648c-2.983.047-5.104.562-6.363 1.548-1.258.985-1.887 2.602-1.887 4.85v19.413zM368.9 37.87l.494-.493h10.72c-1.647 3.81-3.985 6.794-7.018 8.956-3.03 2.16-6.406 3.243-10.12 3.243-5.172 0-9.555-1.82-13.15-5.465-3.598-3.64-5.396-8.07-5.396-13.29 0-5.263 1.788-9.73 5.36-13.4 3.573-3.664 7.9-5.5 12.977-5.5 5.265 0 9.685 1.848 13.258 5.537 3.572 3.69 5.36 8.264 5.36 13.717 0 .847-.096 1.81-.283 2.892H354.66c.233 1.975 1.067 3.562 2.502 4.76 1.434 1.2 3.185 1.8 5.254 1.8 2.35 0 4.514-.918 6.488-2.752zm-13.963-10.86h15.868c-.378-1.833-1.294-3.314-2.75-4.443-1.46-1.128-3.2-1.693-5.22-1.693-4.37 0-7.004 2.045-7.898 6.136zm36.812 21.367h-10.58v-35.26h10.014v3.738c1.88-3.29 4.725-4.937 8.533-4.937h.28v10.648c-2.984.047-5.105.562-6.363 1.548-1.258.985-1.888 2.602-1.888 4.85v19.413z" fill="#fff"/></svg>